<mxfile host="Electron" agent="Mozilla/5.0 (Windows NT 10.0; Win64; x64) AppleWebKit/537.36 (KHTML, like Gecko) draw.io/27.0.5 Chrome/134.0.6998.205 Electron/35.3.0 Safari/537.36" version="27.0.5">
  <diagram name="第 1 页" id="T9F7gAKvF-rqMI3GpTuX">
    <mxGraphModel dx="668" dy="-3041" grid="1" gridSize="10" guides="1" tooltips="1" connect="1" arrows="1" fold="1" page="1" pageScale="1" pageWidth="827" pageHeight="1169" math="0" shadow="0">
      <root>
        <mxCell id="0" />
        <mxCell id="1" parent="0" />
        <mxCell id="adxt3rBYuP4-YXxuHtxF-1" value="" style="rounded=0;whiteSpace=wrap;html=1;strokeWidth=1;container=0;shadow=0;fillColor=#FEFEFE;" parent="1" vertex="1">
          <mxGeometry x="50" y="3780" width="540" height="150" as="geometry" />
        </mxCell>
        <mxCell id="adxt3rBYuP4-YXxuHtxF-2" value="&lt;font face=&quot;Times New Roman&quot;&gt;&lt;b&gt;Client&lt;/b&gt;&lt;/font&gt;" style="text;html=1;align=center;verticalAlign=middle;resizable=0;points=[];autosize=1;strokeColor=none;fillColor=none;" parent="1" vertex="1">
          <mxGeometry x="525" y="3790.25" width="50" height="30" as="geometry" />
        </mxCell>
        <mxCell id="adxt3rBYuP4-YXxuHtxF-3" value="" style="rounded=0;whiteSpace=wrap;html=1;strokeWidth=1;container=0;shadow=0;fillColor=#FEFEFE;" parent="1" vertex="1">
          <mxGeometry x="50" y="3940" width="540" height="110" as="geometry" />
        </mxCell>
        <mxCell id="adxt3rBYuP4-YXxuHtxF-4" value="&lt;font face=&quot;Times New Roman&quot;&gt;&lt;b&gt;Server&lt;/b&gt;&lt;/font&gt;" style="text;html=1;align=center;verticalAlign=middle;resizable=0;points=[];autosize=1;strokeColor=none;fillColor=none;" parent="1" vertex="1">
          <mxGeometry x="525" y="3940" width="60" height="30" as="geometry" />
        </mxCell>
        <mxCell id="adxt3rBYuP4-YXxuHtxF-5" value="&lt;font face=&quot;Times New Roman&quot;&gt;async fn ipc_call()&lt;/font&gt;" style="rounded=1;whiteSpace=wrap;html=1;fillColor=#FEF3D2;" parent="1" vertex="1">
          <mxGeometry x="268.57" y="3800" width="120" height="30" as="geometry" />
        </mxCell>
        <mxCell id="adxt3rBYuP4-YXxuHtxF-6" value="" style="rounded=1;whiteSpace=wrap;html=1;fillColor=#FEDDC7;" parent="1" vertex="1">
          <mxGeometry x="69.99999999999999" y="3800" width="150" height="70" as="geometry" />
        </mxCell>
        <mxCell id="adxt3rBYuP4-YXxuHtxF-7" value="&lt;font face=&quot;Times New Roman&quot;&gt;async fn reply_dispatcher(buf)&lt;/font&gt;" style="rounded=1;whiteSpace=wrap;html=1;fillColor=#FEF3D2;" parent="1" vertex="1">
          <mxGeometry x="268.57" y="3837.5" width="120" height="35" as="geometry" />
        </mxCell>
        <mxCell id="adxt3rBYuP4-YXxuHtxF-8" value="&lt;font face=&quot;Times New Roman&quot;&gt;Async Runtime&lt;/font&gt;" style="text;html=1;align=center;verticalAlign=middle;resizable=0;points=[];autosize=1;strokeColor=none;fillColor=none;" parent="1" vertex="1">
          <mxGeometry x="69.99999999999997" y="3800" width="100" height="30" as="geometry" />
        </mxCell>
        <mxCell id="adxt3rBYuP4-YXxuHtxF-9" value="&lt;font face=&quot;Times New Roman&quot;&gt;uintr_handler()&lt;/font&gt;" style="rounded=1;whiteSpace=wrap;html=1;fillColor=#F1FAEE;" parent="1" vertex="1">
          <mxGeometry x="460.79" y="3840.25" width="94.21" height="30" as="geometry" />
        </mxCell>
        <mxCell id="adxt3rBYuP4-YXxuHtxF-10" value="&lt;font face=&quot;Times New Roman&quot;&gt;uintc_handler&lt;/font&gt;" style="rounded=1;whiteSpace=wrap;html=1;fillColor=#F1FAEE;" parent="1" vertex="1">
          <mxGeometry x="79.45" y="3996.25" width="94.21" height="35" as="geometry" />
        </mxCell>
        <mxCell id="adxt3rBYuP4-YXxuHtxF-11" value="" style="endArrow=classic;html=1;rounded=0;exitX=0.377;exitY=1.005;exitDx=0;exitDy=0;exitPerimeter=0;entryX=0.5;entryY=0;entryDx=0;entryDy=0;" parent="1" source="adxt3rBYuP4-YXxuHtxF-6" target="adxt3rBYuP4-YXxuHtxF-10" edge="1">
          <mxGeometry width="50" height="50" relative="1" as="geometry">
            <mxPoint x="340" y="4000" as="sourcePoint" />
            <mxPoint x="157" y="3980" as="targetPoint" />
          </mxGeometry>
        </mxCell>
        <mxCell id="adxt3rBYuP4-YXxuHtxF-12" value="&lt;font face=&quot;Times New Roman&quot;&gt;U-notification&lt;/font&gt;" style="edgeLabel;html=1;align=center;verticalAlign=middle;resizable=0;points=[];" parent="adxt3rBYuP4-YXxuHtxF-11" vertex="1" connectable="0">
          <mxGeometry x="-0.468" y="-1" relative="1" as="geometry">
            <mxPoint as="offset" />
          </mxGeometry>
        </mxCell>
        <mxCell id="adxt3rBYuP4-YXxuHtxF-13" value="&lt;font face=&quot;Times New Roman&quot;&gt;async fn req_&lt;/font&gt;&lt;span style=&quot;font-family: &amp;quot;Times New Roman&amp;quot;;&quot;&gt;dispatcher&lt;/span&gt;&lt;font face=&quot;Times New Roman&quot;&gt;(buf)&lt;/font&gt;" style="rounded=1;whiteSpace=wrap;html=1;fillColor=#FEF3D2;" parent="1" vertex="1">
          <mxGeometry x="230" y="3997.5" width="120" height="32.5" as="geometry" />
        </mxCell>
        <mxCell id="adxt3rBYuP4-YXxuHtxF-14" value="&lt;font face=&quot;Times New Roman&quot;&gt;syscall lib&lt;/font&gt;" style="shape=note;whiteSpace=wrap;html=1;backgroundOutline=1;darkOpacity=0.05;size=14;fillColor=#F2FFFE;" parent="1" vertex="1">
          <mxGeometry x="79.44999999999999" y="3830" width="80" height="40" as="geometry" />
        </mxCell>
        <mxCell id="adxt3rBYuP4-YXxuHtxF-15" value="" style="rounded=0;whiteSpace=wrap;html=1;fillColor=#F2FFFE;" parent="1" vertex="1">
          <mxGeometry x="159.45" y="3830" width="50" height="10" as="geometry" />
        </mxCell>
        <mxCell id="adxt3rBYuP4-YXxuHtxF-16" value="" style="rounded=0;whiteSpace=wrap;html=1;fillColor=#F2FFFE;" parent="1" vertex="1">
          <mxGeometry x="159.45" y="3840" width="50" height="10" as="geometry" />
        </mxCell>
        <mxCell id="adxt3rBYuP4-YXxuHtxF-17" value="" style="rounded=0;whiteSpace=wrap;html=1;fillColor=#F2FFFE;" parent="1" vertex="1">
          <mxGeometry x="159.45" y="3850" width="50" height="10" as="geometry" />
        </mxCell>
        <mxCell id="adxt3rBYuP4-YXxuHtxF-18" value="" style="rounded=0;whiteSpace=wrap;html=1;fillColor=#F2FFFE;" parent="1" vertex="1">
          <mxGeometry x="159.45" y="3860" width="50" height="10" as="geometry" />
        </mxCell>
        <mxCell id="adxt3rBYuP4-YXxuHtxF-19" value="&lt;font style=&quot;font-size: 10px;&quot; face=&quot;Times New Roman&quot;&gt;Task Queue&lt;/font&gt;" style="text;html=1;align=center;verticalAlign=middle;resizable=0;points=[];autosize=1;strokeColor=none;fillColor=none;" parent="1" vertex="1">
          <mxGeometry x="150" y="3805" width="70" height="30" as="geometry" />
        </mxCell>
        <mxCell id="adxt3rBYuP4-YXxuHtxF-20" value="" style="rounded=1;whiteSpace=wrap;html=1;fillColor=#FEDDC7;" parent="1" vertex="1">
          <mxGeometry x="420" y="3970" width="150" height="70" as="geometry" />
        </mxCell>
        <mxCell id="adxt3rBYuP4-YXxuHtxF-21" value="&lt;font face=&quot;Times New Roman&quot;&gt;Async Runtime&lt;/font&gt;" style="text;html=1;align=center;verticalAlign=middle;resizable=0;points=[];autosize=1;strokeColor=none;fillColor=none;" parent="1" vertex="1">
          <mxGeometry x="417.45" y="3970" width="100" height="30" as="geometry" />
        </mxCell>
        <mxCell id="adxt3rBYuP4-YXxuHtxF-22" value="&lt;font face=&quot;Times New Roman&quot;&gt;syscall handler&lt;/font&gt;" style="shape=note;whiteSpace=wrap;html=1;backgroundOutline=1;darkOpacity=0.05;size=14;fillColor=#F2FFFE;" parent="1" vertex="1">
          <mxGeometry x="479.45" y="4000" width="80" height="40" as="geometry" />
        </mxCell>
        <mxCell id="adxt3rBYuP4-YXxuHtxF-23" value="" style="rounded=0;whiteSpace=wrap;html=1;fillColor=#F2FFFE;" parent="1" vertex="1">
          <mxGeometry x="429.45" y="4000" width="50" height="10" as="geometry" />
        </mxCell>
        <mxCell id="adxt3rBYuP4-YXxuHtxF-24" value="" style="rounded=0;whiteSpace=wrap;html=1;fillColor=#F2FFFE;" parent="1" vertex="1">
          <mxGeometry x="429.45" y="4010" width="50" height="10" as="geometry" />
        </mxCell>
        <mxCell id="adxt3rBYuP4-YXxuHtxF-25" value="" style="rounded=0;whiteSpace=wrap;html=1;fillColor=#F2FFFE;" parent="1" vertex="1">
          <mxGeometry x="429.45" y="4020" width="50" height="10" as="geometry" />
        </mxCell>
        <mxCell id="adxt3rBYuP4-YXxuHtxF-26" value="" style="rounded=0;whiteSpace=wrap;html=1;fillColor=#F2FFFE;" parent="1" vertex="1">
          <mxGeometry x="429.45" y="4030" width="50" height="10" as="geometry" />
        </mxCell>
        <mxCell id="adxt3rBYuP4-YXxuHtxF-27" value="" style="endArrow=classic;html=1;rounded=0;entryX=0.5;entryY=1;entryDx=0;entryDy=0;exitX=0.595;exitY=0.011;exitDx=0;exitDy=0;exitPerimeter=0;" parent="1" source="adxt3rBYuP4-YXxuHtxF-20" target="adxt3rBYuP4-YXxuHtxF-9" edge="1">
          <mxGeometry width="50" height="50" relative="1" as="geometry">
            <mxPoint x="340" y="3950" as="sourcePoint" />
            <mxPoint x="390" y="3900" as="targetPoint" />
          </mxGeometry>
        </mxCell>
        <mxCell id="adxt3rBYuP4-YXxuHtxF-28" value="&lt;font face=&quot;Times New Roman&quot;&gt;U-notification&lt;/font&gt;" style="edgeLabel;html=1;align=center;verticalAlign=middle;resizable=0;points=[];" parent="adxt3rBYuP4-YXxuHtxF-27" vertex="1" connectable="0">
          <mxGeometry x="0.3729" relative="1" as="geometry">
            <mxPoint as="offset" />
          </mxGeometry>
        </mxCell>
        <mxCell id="adxt3rBYuP4-YXxuHtxF-29" value="" style="endArrow=none;dashed=1;html=1;dashPattern=1 3;strokeWidth=2;rounded=0;entryX=0;entryY=0.5;entryDx=0;entryDy=0;" parent="1" target="adxt3rBYuP4-YXxuHtxF-5" edge="1">
          <mxGeometry width="50" height="50" relative="1" as="geometry">
            <mxPoint x="208.57" y="3840" as="sourcePoint" />
            <mxPoint x="388.57" y="3880" as="targetPoint" />
          </mxGeometry>
        </mxCell>
        <mxCell id="adxt3rBYuP4-YXxuHtxF-30" value="" style="endArrow=none;dashed=1;html=1;dashPattern=1 3;strokeWidth=2;rounded=0;exitX=0.664;exitY=-0.089;exitDx=0;exitDy=0;exitPerimeter=0;" parent="1" source="adxt3rBYuP4-YXxuHtxF-17" edge="1">
          <mxGeometry width="50" height="50" relative="1" as="geometry">
            <mxPoint x="338.57" y="3930" as="sourcePoint" />
            <mxPoint x="268.57" y="3860" as="targetPoint" />
          </mxGeometry>
        </mxCell>
        <mxCell id="adxt3rBYuP4-YXxuHtxF-31" value="" style="endArrow=none;dashed=1;html=1;dashPattern=1 3;strokeWidth=2;rounded=0;exitX=1;exitY=0.5;exitDx=0;exitDy=0;entryX=0;entryY=0.75;entryDx=0;entryDy=0;" parent="1" source="adxt3rBYuP4-YXxuHtxF-13" target="adxt3rBYuP4-YXxuHtxF-23" edge="1">
          <mxGeometry width="50" height="50" relative="1" as="geometry">
            <mxPoint x="369.45" y="4007.5" as="sourcePoint" />
            <mxPoint x="409.45" y="3907.5" as="targetPoint" />
          </mxGeometry>
        </mxCell>
        <mxCell id="adxt3rBYuP4-YXxuHtxF-32" value="" style="endArrow=classic;html=1;rounded=0;exitX=0;exitY=0.5;exitDx=0;exitDy=0;entryX=1;entryY=0.5;entryDx=0;entryDy=0;" parent="1" source="adxt3rBYuP4-YXxuHtxF-9" target="adxt3rBYuP4-YXxuHtxF-7" edge="1">
          <mxGeometry width="50" height="50" relative="1" as="geometry">
            <mxPoint x="338.57" y="3930" as="sourcePoint" />
            <mxPoint x="388.57" y="3880" as="targetPoint" />
          </mxGeometry>
        </mxCell>
        <mxCell id="adxt3rBYuP4-YXxuHtxF-33" value="&lt;font face=&quot;Times New Roman&quot;&gt;wake&lt;/font&gt;" style="edgeLabel;html=1;align=center;verticalAlign=middle;resizable=0;points=[];" parent="adxt3rBYuP4-YXxuHtxF-32" vertex="1" connectable="0">
          <mxGeometry x="0.0192" y="-2" relative="1" as="geometry">
            <mxPoint as="offset" />
          </mxGeometry>
        </mxCell>
        <mxCell id="adxt3rBYuP4-YXxuHtxF-36" value="" style="endArrow=classic;html=1;rounded=0;exitX=1;exitY=0.25;exitDx=0;exitDy=0;entryX=1;entryY=0.5;entryDx=0;entryDy=0;" parent="1" source="adxt3rBYuP4-YXxuHtxF-7" target="adxt3rBYuP4-YXxuHtxF-5" edge="1">
          <mxGeometry width="50" height="50" relative="1" as="geometry">
            <mxPoint x="338.57" y="3930" as="sourcePoint" />
            <mxPoint x="388.57" y="3880" as="targetPoint" />
            <Array as="points">
              <mxPoint x="408.57" y="3846" />
              <mxPoint x="408.57" y="3815" />
            </Array>
          </mxGeometry>
        </mxCell>
        <mxCell id="adxt3rBYuP4-YXxuHtxF-37" value="&lt;font face=&quot;Times New Roman&quot;&gt;wake&lt;/font&gt;" style="edgeLabel;html=1;align=center;verticalAlign=middle;resizable=0;points=[];" parent="adxt3rBYuP4-YXxuHtxF-36" vertex="1" connectable="0">
          <mxGeometry x="0.0992" relative="1" as="geometry">
            <mxPoint x="16" as="offset" />
          </mxGeometry>
        </mxCell>
        <mxCell id="adxt3rBYuP4-YXxuHtxF-38" value="&lt;font face=&quot;Times New Roman&quot;&gt;shared memory&lt;/font&gt;" style="rounded=0;whiteSpace=wrap;html=1;fillColor=#E4F4FA;" parent="1" vertex="1">
          <mxGeometry x="245.1" y="3900" width="144.9" height="70" as="geometry" />
        </mxCell>
        <mxCell id="adxt3rBYuP4-YXxuHtxF-39" value="" style="endArrow=classic;startArrow=classic;html=1;rounded=0;exitX=0;exitY=0.75;exitDx=0;exitDy=0;entryX=-0.007;entryY=0.172;entryDx=0;entryDy=0;entryPerimeter=0;" parent="1" source="adxt3rBYuP4-YXxuHtxF-18" target="adxt3rBYuP4-YXxuHtxF-38" edge="1">
          <mxGeometry width="50" height="50" relative="1" as="geometry">
            <mxPoint x="270" y="4000" as="sourcePoint" />
            <mxPoint x="320" y="3950" as="targetPoint" />
          </mxGeometry>
        </mxCell>
        <mxCell id="adxt3rBYuP4-YXxuHtxF-40" value="" style="endArrow=classic;startArrow=classic;html=1;rounded=0;exitX=0.106;exitY=0.667;exitDx=0;exitDy=0;exitPerimeter=0;" parent="1" source="adxt3rBYuP4-YXxuHtxF-21" edge="1">
          <mxGeometry width="50" height="50" relative="1" as="geometry">
            <mxPoint x="169" y="3878" as="sourcePoint" />
            <mxPoint x="350" y="3970" as="targetPoint" />
          </mxGeometry>
        </mxCell>
        <mxCell id="adxt3rBYuP4-YXxuHtxF-42" value="" style="edgeStyle=orthogonalEdgeStyle;rounded=0;orthogonalLoop=1;jettySize=auto;html=1;" parent="1" target="adxt3rBYuP4-YXxuHtxF-13" edge="1">
          <mxGeometry relative="1" as="geometry">
            <Array as="points">
              <mxPoint x="174" y="4013" />
            </Array>
            <mxPoint x="174" y="4013" as="sourcePoint" />
          </mxGeometry>
        </mxCell>
        <mxCell id="adxt3rBYuP4-YXxuHtxF-43" value="&lt;font face=&quot;Times New Roman&quot;&gt;wake&lt;/font&gt;" style="edgeLabel;html=1;align=center;verticalAlign=middle;resizable=0;points=[];" parent="adxt3rBYuP4-YXxuHtxF-42" vertex="1" connectable="0">
          <mxGeometry x="0.2466" y="1" relative="1" as="geometry">
            <mxPoint x="-11" as="offset" />
          </mxGeometry>
        </mxCell>
      </root>
    </mxGraphModel>
  </diagram>
</mxfile>
